PathFileType	4	(X/Y/Z)	C:\Users\WrightLab\Desktop\Jo\P5V29.trc
DataRate	CameraRate	NumFrames	NumMarkers	Units	OrigDataRate	OrigDataStartFrame	OrigNumFrames
100.00	100.00	       21	19	mm	100.00	475	       759
Frame#	Time	Headset_Front			Headset_Back			Headset_Left			Headset_Right			Left_Shoulder			Right_Shoulder			Sternum			C7			Left Elbow			Right Elbow			Left Wrist			Right Wrist			Left ASIS			Right ASIS			S2			Left Knee			Right Knee			Left Ankle			Right Ankle			
		X1	Y1	Z1	X2	Y2	Z2	X3	Y3	Z3	X4	Y4	Z4	X5	Y5	Z5	X6	Y6	Z6	X7	Y7	Z7	X8	Y8	Z8	X9	Y9	Z9	X10	Y10	Z10	X11	Y11	Z11	X12	Y12	Z12	X13	Y13	Z13	X14	Y14	Z14	X15	Y15	Z15	X16	Y16	Z16	X17	Y17	Z17	X18	Y18	Z18	X19	Y19	Z19	

475	4.740	95.45860	1411.66333	-85.51170							5.03030	1519.26819	-29.55598	-13.99457	1505.43884	-424.13287	-119.86242	1422.96143	-54.02794	-44.60134	1289.39539	-231.19083	-198.79861	1536.46326	-252.88640	-25.29052	1218.87500	-528.51636	-74.22282	1164.95361	52.71243	17.01832	980.50800	-454.32156	125.00179	1017.81055	91.22019	-29.91469	925.31390	-353.81448	-175.47112	932.10168	-118.99957	-300.41116	1009.87463	-391.31870	-36.36181	494.96762	-397.32474	-311.20059	492.93381	-119.41348	-90.34784	83.78641	-352.74924	-409.97064	102.18350	-197.07133	
476	4.750	97.28869	1411.82690	-86.73572							6.22675	1519.12878	-29.97189	-13.02573	1505.08496	-424.33844	-118.35652	1422.82349	-53.84355	-43.13325	1288.94299	-231.94864	-197.64691	1536.26379	-252.88087	-24.29779	1218.53491	-529.69861	-73.08968	1164.78931	52.12996	17.82687	980.40881	-454.41946	125.96146	1017.13403	90.93507	-29.42531	925.14508	-354.19522	-174.54770	931.96869	-118.83070	-299.90411	1010.28149	-392.15588	-36.07446	495.16006	-398.40375	-311.19202	492.95346	-119.41409	-90.18553	83.57665	-353.01694	-410.02502	102.22093	-197.08772	
477	4.760	99.19601	1411.20154	-86.69970							7.86666	1518.65417	-30.33809	-11.76888	1504.72095	-425.19424	-116.87344	1422.63733	-54.20489	-42.65149	1288.50806	-232.32521	-196.37538	1536.26501	-253.08046	-22.92122	1218.48840	-529.30414	-71.34048	1164.31189	51.92744	19.47816	980.45184	-455.16794	127.18573	1016.40802	90.34528	-29.11870	925.24969	-354.47919	-174.48528	932.30920	-119.93730	-299.33127	1010.28644	-392.12390	-35.83823	495.21448	-398.81851	-310.60989	492.77698	-119.75137	-90.10000	83.37980	-352.87582	-410.00357	102.21081	-197.09300	
478	4.770	99.52898	1410.77393	-87.08770							9.40359	1518.14771	-30.94424	-10.58204	1504.63513	-425.45074	-115.51077	1421.94775	-54.60606	-41.97412	1288.55530	-232.93317	-194.73958	1536.09998	-253.03773	-22.29133	1218.57043	-529.64935	-70.67924	1164.19080	51.85905	20.22113	980.53558	-455.38177	128.23648	1016.73340	89.66798	-28.60675	924.87531	-354.94852	-173.39926	931.94171	-120.69731	-298.84265	1010.32434	-392.62625	-35.85647	494.98108	-399.80545	-310.77029	492.91141	-119.55473	-89.86481	83.56252	-352.97980	-410.03262	102.21613	-197.10379	
479	4.780	100.93620	1410.01978	-87.89054							10.62617	1517.82239	-31.43378	-9.56519	1504.98462	-426.43439	-114.34862	1421.37268	-54.74998	-40.40831	1288.66980	-233.94698	-193.84059	1535.92285	-253.67198	-21.07691	1218.33911	-529.72754	-69.77601	1163.98926	51.74097	21.34438	980.32239	-455.79279	129.26712	1016.29211	89.31095	-28.12311	924.82904	-355.40695	-173.28670	931.97968	-120.64981	-298.20816	1010.70416	-393.39929	-35.74363	494.94467	-399.84930	-310.32608	492.66241	-120.03967	-89.77201	83.34517	-352.85617	-409.97855	102.30901	-197.47382	
480	4.790	101.75473	1409.93103	-88.35736							11.49987	1517.39392	-31.54038	-8.25395	1504.72388	-426.62802	-112.83295	1421.14172	-55.00721	-39.93520	1288.06592	-234.52676	-193.16197	1536.02527	-254.05185	-20.31759	1217.67212	-529.70563	-67.99859	1163.90747	52.03325	22.21491	980.30804	-456.16537	130.56398	1015.47516	89.37439	-27.44742	924.66687	-356.01279	-173.19553	931.42896	-122.03417	-297.64050	1010.58264	-393.58862	-35.24598	494.72211	-400.09525	-310.32376	492.75760	-120.28125	-90.02409	83.35372	-352.96469	-410.04562	102.23560	-197.11703	
481	4.800	103.05108	1409.69836	-88.58986							13.04471	1516.91541	-31.62303	-7.42455	1504.33289	-426.51547	-111.84015	1421.39526	-55.29007	-39.20322	1287.19067	-234.77197	-191.69560	1535.59766	-254.18681	-19.41531	1217.87500	-531.08362	-66.71407	1163.67578	52.09274	22.90300	980.34235	-456.40765	131.04932	1015.37915	89.64759	-26.75381	923.86353	-356.93704	-173.21051	931.40997	-122.49434	-297.15771	1010.57819	-394.10016	-34.65622	494.57346	-400.49768	-310.14236	492.63303	-120.21191	-89.74090	83.31098	-352.87445	-409.99335	102.33177	-197.48373	
482	4.810	104.25883	1409.24841	-88.58051							14.37316	1516.84448	-32.06964	-6.05440	1503.87793	-426.30276	-110.44077	1420.62402	-55.39870	-38.24791	1286.91431	-234.80655	-190.04726	1535.49121	-253.77538	-18.65761	1217.61902	-531.10150	-65.77168	1163.72424	51.85862	24.36070	980.35852	-456.63852	132.25778	1014.82562	89.28388	-26.10172	923.55273	-357.05090	-171.90860	931.61157	-122.80000	-296.74072	1010.34235	-394.21051	-34.30321	494.29404	-400.57745	-310.04343	492.79834	-120.55421	-89.67957	83.59697	-353.17813	-410.05890	102.25394	-197.11333	
483	4.820	105.41718	1409.03589	-88.77786							14.94074	1516.59290	-32.25721	-5.13419	1503.57300	-426.52615	-109.19310	1420.16675	-55.56146	-37.19045	1287.05322	-235.36697	-188.88873	1535.28259	-253.60756	-17.54144	1217.65063	-531.68079	-65.18053	1163.37280	51.61710	24.71972	979.89581	-456.72079	133.59300	1014.23938	89.28038	-25.60898	923.42133	-357.02069	-171.40735	931.35614	-122.90458	-296.08035	1010.99377	-394.90714	-33.90687	494.16861	-401.23712	-310.22507	493.02072	-120.75623	-89.46603	83.50922	-353.25473	-409.84961	102.34196	-197.59883	
484	4.830	106.03589	1408.18115	-88.63087							16.47523	1515.85767	-32.67971	-4.42047	1503.55139	-426.78653	-107.70755	1420.22351	-55.82950	-37.02462	1287.06116	-235.58302	-188.21544	1535.38159	-253.98975	-16.45705	1217.71619	-531.67816	-63.86825	1162.70313	51.49174	25.64995	979.81543	-456.94901	134.49641	1014.06732	89.89822	-24.97571	923.30548	-357.51431	-170.37416	931.65588	-122.75626	-295.30945	1010.88495	-394.53821	-33.30968	494.21774	-401.61813	-309.96262	492.83841	-120.69088	-89.55782	83.37119	-353.06076	-409.84860	102.34600	-197.61923	
485	4.840	106.75107	1408.13232	-88.43217							17.26452	1515.77490	-32.75678	-3.67279	1503.63550	-427.13477	-106.90836	1420.32446	-55.98596	-35.38136	1286.52832	-235.96123	-187.17624	1535.09924	-253.89453	-15.66629	1217.62585	-531.90784	-62.14807	1162.51379	51.41961	26.67700	979.83325	-456.94101	135.44429	1013.86261	89.96612	-24.17072	922.94519	-357.56436	-170.00238	931.38531	-123.19839	-294.56870	1011.30182	-394.93338	-32.90252	494.16406	-402.26175	-310.21359	492.97214	-121.16396	-89.38103	83.49671	-353.48309	-409.81174	102.33662	-197.61102	
486	4.850	107.66621	1407.55396	-89.27699							18.13905	1515.16992	-32.72566	-2.23808	1503.81665	-427.91302	-105.54121	1419.87769	-56.43344	-34.30600	1286.50061	-236.29955	-185.62360	1535.17847	-254.75156	-14.75250	1217.68677	-532.37628	-61.17055	1162.69287	51.29062	27.90246	979.36713	-458.40836	136.56979	1013.66486	90.15032	-23.78372	923.08307	-358.08218	-169.69214	931.13599	-123.04842	-294.14307	1011.44244	-396.02655	-32.19263	494.17892	-402.27560	-310.14484	492.90158	-121.03843	-89.49047	83.36146	-353.28641	-409.78162	102.35188	-197.59834	
487	4.860	108.88779	1407.54382	-89.53581							18.72542	1515.18640	-32.67478	-1.72395	1503.58447	-428.19101	-104.21986	1419.25940	-56.57090	-33.85673	1285.96350	-236.15025	-184.67639	1535.06506	-254.42088	-14.07043	1217.57483	-531.83356	-60.11109	1162.37903	51.37946	29.17140	980.30579	-457.79782	137.73010	1013.59308	90.77948	-23.24106	922.75616	-358.12515	-171.05957	930.67279	-121.49971	-293.61389	1011.45300	-396.20853	-31.78654	494.08124	-402.20551	-310.05072	493.37820	-121.54152	-89.45844	83.39982	-353.65921	-409.75867	102.35469	-197.59166	
488	4.870	110.25726	1407.08398	-89.21349							20.00777	1514.79480	-32.93793	-0.62579	1503.38354	-428.10025	-102.67569	1419.18359	-56.76567	-33.43479	1285.75916	-236.55859	-183.60492	1534.74280	-254.21635	-12.49828	1217.09802	-531.78094	-59.96755	1162.55457	52.57545	29.44466	980.21765	-458.19318	138.87143	1013.32721	91.60303	-22.37837	922.62659	-358.99326	-170.98843	930.91736	-121.76012	-293.02490	1011.70306	-396.53986	-31.40461	494.10730	-402.19952	-309.91623	493.66089	-122.34837	-89.57571	83.25927	-353.46432	-409.75266	102.35654	-197.60385	
489	4.880	110.83617	1407.18799	-89.29385							20.74127	1514.38904	-32.82730	0.08870	1503.22168	-428.17300	-101.48289	1418.93774	-56.86961	-32.33227	1285.85034	-237.57306	-182.76454	1535.04565	-254.24910	-11.97134	1217.20557	-532.04834	-58.44181	1162.21423	52.72868	30.70265	980.30688	-458.31204	139.61330	1013.40778	92.27795	-21.79401	922.31488	-359.14066	-170.88150	930.93402	-121.72840	-292.47577	1011.52307	-396.33090	-30.97707	493.94473	-402.41641	-309.92001	493.60587	-122.68261	-89.58095	83.24974	-353.46829	-409.89301	102.61063	-197.79845	
490	4.890	111.37601	1406.76367	-89.29118							21.66291	1514.06750	-32.71286	1.07983	1503.08264	-427.92340	-100.87897	1418.68921	-56.73754	-32.02453	1285.30176	-237.42148	-181.69659	1534.77039	-253.98946	-11.16662	1217.29492	-532.79688	-57.23033	1161.66052	53.01255	31.86752	980.24451	-458.58969	140.64612	1013.33417	92.74164	-21.35713	922.24573	-359.51776	-170.45123	931.02576	-122.37489	-291.82773	1011.72339	-396.77814	-29.94011	493.82843	-402.74115	-309.91031	493.58392	-122.92021	-89.48677	83.12592	-353.61722	-409.89859	102.61100	-197.80559	
491	4.900	112.40388	1406.30054	-89.83438							22.36658	1513.76794	-32.85920	2.03287	1503.06238	-427.45496	-99.47520	1418.24902	-56.77483	-30.97929	1285.17615	-237.64424	-180.93866	1534.85095	-254.23824	-10.10649	1217.11389	-532.87036	-56.56722	1161.63013	53.35357	32.48772	979.98572	-458.86710	142.36501	1012.88098	93.15021	-21.29399	922.05847	-359.76385	-170.16342	930.75769	-123.52930	-291.22705	1011.78955	-396.78806	-29.70807	493.86252	-402.75714	-309.88480	493.30826	-123.39944	-89.28143	83.04829	-353.66071	-409.91177	102.64587	-197.79631	
492	4.910	113.30883	1406.13721	-89.73070							23.03713	1513.62207	-33.28484	2.70640	1503.10461	-427.73325	-98.29725	1417.92285	-56.85344	-30.36386	1285.14722	-237.83197	-179.85487	1534.71838	-254.33678	-9.47198	1216.97400	-532.94861	-55.77047	1161.41846	53.62298	32.88591	979.95575	-458.95990	143.76781	1012.48761	93.82652	-20.77862	922.00507	-359.51343	-169.64400	930.87836	-123.56004	-290.89307	1011.94843	-397.91873	-29.18720	493.91943	-403.04318	-309.87216	493.33804	-123.69057	-89.73001	83.14825	-353.87119	-409.91144	102.66984	-197.79498	
493	4.920	114.88273	1406.63391	-88.20239							24.14352	1513.37012	-33.09226	3.82850	1502.90137	-427.83160	-97.39040	1417.56189	-56.89964	-29.77682	1285.14026	-238.23381	-178.79684	1534.59412	-253.68062	-8.79577	1216.92065	-533.07507	-53.55634	1161.82239	53.72823	33.68501	979.68427	-459.34485	144.62372	1013.10767	95.46539	-20.49351	922.27405	-360.01761	-169.18500	930.81860	-123.55392	-290.32529	1012.38977	-398.21194	-28.64198	494.00790	-403.17221	-309.76114	493.37924	-123.98205	-89.48625	83.11615	-353.62180	-409.90826	102.69196	-197.78401	
494	4.930	114.86127	1405.72913	-89.34010							24.77265	1513.13647	-32.99201	4.90332	1503.04126	-428.45551	-96.05910	1417.38867	-57.11289	-28.49960	1284.73035	-238.69742	-178.09915	1534.55798	-253.50500	-8.39785	1217.00171	-533.27783	-52.26818	1161.63293	53.94912	34.56433	979.82312	-459.55664	145.61662	1013.23944	96.01762	-20.12873	922.12836	-360.28342	-168.63660	930.80359	-123.55605	-289.71854	1012.90149	-398.42175	-28.25521	493.73444	-403.75992	-310.01257	493.50345	-124.08262	-89.28303	83.02901	-353.66946	-409.91449	102.70002	-197.78557	
495	4.940	115.38717	1405.34998	-88.59498							25.21364	1513.17883	-32.75440	5.61656	1502.97131	-428.14896	-95.49381	1417.43835	-56.84807	-27.97609	1284.16626	-238.46936	-177.46265	1534.43225	-253.55322	-7.17997	1217.11438	-533.87036	-51.31565	1161.42493	54.10379	36.32827	980.50861	-459.54681	147.24924	1012.60828	96.71473	-19.88405	922.14624	-360.29828	-168.08702	930.88556	-123.57820	-289.26508	1013.12097	-399.10220	-27.71227	493.54425	-404.16220	-309.98355	493.56754	-124.25576	-89.29416	83.03178	-353.66730	-409.90579	102.74285	-197.77190	
